<svg xmlns="http://www.w3.org/2000/svg" xmlns:xlink="http://www.w3.org/1999/xlink" width="1400" height="684"><defs><path id="a" d="M0 0h1400v684H0z"/></defs><g fill="none" fill-rule="evenodd"><mask id="b" fill="#fff"><use xlink:href="#a"/></mask><use fill="#5C2483" xlink:href="#a"/><g fill="#FFF" fill-rule="nonzero" mask="url(#b)" opacity=".07"><path d="M256.777 557a1374.446 1374.446 0 0177.652-34.614 1799.36 1799.36 0 0179.465-30.352 2102.894 2102.894 0 01162.458-50.45A2457.517 2457.517 0 01910 376.365L908.32 363a2473.916 2473.916 0 00-335.478 65.558c-55.065 14.854-109.643 31.653-163.448 50.754a1796.095 1796.095 0 00-80.02 30.656A1470.197 1470.197 0 00251 544.853L256.777 557z"/><path d="M12.692 768a136.651 136.651 0 0116.128-36.17 230.688 230.688 0 0124.587-32.386c18.297-20.391 39.437-38.485 61.636-55.091a612.86 612.86 0 0134.24-23.838c11.772-7.568 23.545-14.934 35.62-21.962 12.074-7.028 24.267-13.82 36.645-20.273 6.155-3.379 12.428-6.42 18.633-9.63 6.206-3.21 12.496-6.267 18.819-9.24l-2.102-4.41c-6.34 2.99-12.596 6.183-18.903 9.292a573.766 573.766 0 00-18.7 9.663c-12.446 6.504-24.689 13.346-36.831 20.374-12.142 7.028-24.066 14.428-35.838 22.047a619.983 619.983 0 00-34.476 24.006c-22.4 16.76-43.725 35.022-62.359 55.75a234.452 234.452 0 00-25.108 33.164A140.58 140.58 0 008 766.733L12.692 768zM516.54 461a2427.441 2427.441 0 01235.061-56.544 2497.162 2497.162 0 01239.536-33.38c40.169-3.504 80.422-6.041 120.71-7.26 40.286-1.218 80.607-1.285 120.844.3 40.236 1.586 80.406 4.74 120.205 10.232 19.9 2.753 39.698 6.108 59.312 10.23a599.156 599.156 0 0158.084 15.02l2.708-8.427a605.635 605.635 0 00-58.875-15.288c-19.866-4.172-39.866-7.56-59.95-10.33-40.153-5.542-80.609-8.713-121.114-10.315-40.506-1.602-80.995-1.586-121.467-.317-40.472 1.268-80.894 3.772-121.231 7.31a2437.036 2437.036 0 00-240.41 33.496A2442.363 2442.363 0 00514 452.472l2.54 8.528z"/><path d="M1466.628 395.61a424.589 424.589 0 0147.493 17.79 264.023 264.023 0 0144.008 24.588 170.179 170.179 0 0119.41 15.804 127.998 127.998 0 0116.247 18.732 85.68 85.68 0 0116.044 45.694c.758 16.376-3.485 32.752-10.354 47.848a163.066 163.066 0 01-12.172 21.88 217.894 217.894 0 01-14.966 20.196l-4.058 4.83-4.208 4.712c-2.778 3.181-5.775 6.143-8.67 9.223-5.944 5.992-12.021 11.866-18.368 17.47-12.627 11.26-25.91 21.795-39.63 31.776a799.962 799.962 0 01-86.333 54.041c-29.815 16.36-60.49 31.17-91.602 44.987-62.29 27.551-126.45 50.76-191.469 71.158l3.014 9.661c65.321-20.482 129.834-43.759 192.546-71.562 31.331-13.919 62.292-28.847 92.377-45.442a806.28 806.28 0 0087.426-54.731c13.94-10.098 27.492-20.887 40.405-32.415 6.482-5.74 12.728-11.781 18.856-17.924 2.98-3.181 6.06-6.228 8.922-9.526l4.36-4.864 4.21-5.05a224.458 224.458 0 0015.64-21.121 172.651 172.651 0 0012.913-23.175 133.598 133.598 0 008.704-25.414 101.493 101.493 0 002.542-27.097 92.081 92.081 0 00-5.27-26.928 100.957 100.957 0 00-12.559-24.134 137.984 137.984 0 00-17.576-20.28 180.109 180.109 0 00-20.556-16.747 274.511 274.511 0 00-45.675-25.363A435.11 435.11 0 001469.642 386l-3.014 9.61z"/><path d="M332 700.048a419.51 419.51 0 0119.684-29.795c6.928-9.584 14.308-18.881 21.92-27.876a507.604 507.604 0 0123.708-26.073c8.18-8.404 16.578-16.523 25.226-24.304L439 610.527a489.102 489.102 0 00-24.125 23.277c-7.813 8-15.376 16.254-22.572 24.81-7.195 8.556-14.174 17.315-20.735 26.376A395.108 395.108 0 00353.053 713L332 700.048zM1088.52 399c38.304 6.868 76.407 17.011 112.932 32.78l6.832 2.938 3.357 1.461 3.357 1.68 13.428 6.6c2.266 1.057 4.431 2.334 6.63 3.543l6.563 3.677 6.58 3.695c2.166 1.242 4.264 2.67 6.412 4.013 4.247 2.72 8.527 5.39 12.74 8.195l12.32 8.984c4.18 2.872 7.99 6.348 11.952 9.555l5.892 4.92 1.477 1.243 1.393 1.327 2.803 2.653c3.71 3.56 7.47 7.07 11.112 10.714l5.321 5.643c1.763 1.88 3.441 3.879 5.153 5.827a255.954 255.954 0 0119.035 24.853 231.903 231.903 0 0127.847 56.844 225.38 225.38 0 0111.196 62.503 250.837 250.837 0 01-5.674 62.352l-42.853-9.286c7.436-33.99 6.58-69.456-4.213-101.984a187.188 187.188 0 00-22.643-46.096 211.874 211.874 0 00-15.779-20.605c-1.46-1.68-2.836-3.358-4.33-4.87l-4.482-4.769c-3.089-3.073-6.311-6.045-9.45-9.068l-2.367-2.267-1.175-1.142-1.276-1.041-5.035-4.215c-3.357-2.754-6.614-5.743-10.273-8.229l-10.675-7.775c-3.66-2.435-7.436-4.769-11.146-7.17-1.863-1.16-3.676-2.419-5.606-3.51l-5.69-3.291-5.791-3.242c-1.948-1.091-3.844-2.216-5.875-3.157l-11.985-5.86-2.988-1.478-3.088-1.31-6.144-2.636c-32.782-14.19-67.796-23.51-103.314-29.908l7.52-43.091z" opacity=".25"/><path d="M677 476.17c19.36-7.366 39.107-13.679 58.938-19.675 5.042-1.487 9.983-2.79 14.974-4.176 4.991-1.386 9.966-2.856 15.025-4.025l15.125-3.674c2.52-.602 5.042-1.253 7.562-1.82l7.614-1.671 15.125-3.224c5.042-1.019 10.184-1.87 15.276-2.806l7.647-1.386 3.832-.701 3.848-.568 15.36-2.322c5.043-.835 10.27-1.403 15.412-2.02l15.444-1.855 15.479-1.37 7.747-.684c2.571-.25 5.16-.334 7.748-.501a717.575 717.575 0 01124.077 2.221A538.337 538.337 0 011164 452.286l-7.832 22.014a514.533 514.533 0 00-115.473-25.154 691.482 691.482 0 00-119.993-2.138c-2.504.167-5.042.25-7.53.484l-7.512.669-15.024 1.336-14.99 1.787c-5.043.601-10.084 1.152-14.992 1.97l-14.94 2.239-3.73.568-3.715.668-7.445 1.353c-5.042.918-9.932 1.753-14.856 2.739l-14.806 3.14-7.395 1.57c-2.454.551-4.89 1.186-7.344 1.77l-14.705 3.575c-4.908 1.135-9.73 2.622-14.604 3.908a493.369 493.369 0 00-14.571 4.059c-19.293 5.845-38.502 11.975-57.325 19.157L677 476.17z" opacity=".25"/><path d="M434 604.724c14.89-13.54 30.518-26.199 46.653-38.165 16.134-11.965 32.756-23.17 49.815-33.68a804.302 804.302 0 01106.596-55.004 880.652 880.652 0 01113.157-39.35l7.218-2.014c2.406-.677 4.828-1.218 7.251-1.828l14.553-3.588c4.828-1.252 9.74-2.234 14.62-3.283l14.636-3.148c4.896-.982 9.825-1.828 14.738-2.742 4.913-.914 9.808-1.878 14.738-2.623l14.822-2.251 7.402-1.134 7.436-.914L871 441.944l-7.2.88-7.168 1.1-14.35 2.183c-4.778.711-9.523 1.693-14.284 2.539-4.761.846-9.522 1.692-14.266 2.657l-14.2 3.047c-4.727 1.032-9.472 1.963-14.165 3.198l-14.099 3.47c-2.338.592-4.71 1.117-7.032 1.692l-6.999 1.964a856.167 856.167 0 00-109.608 38.283 776.007 776.007 0 00-103.046 53.177c-16.453 10.155-32.47 20.885-47.914 32.377-15.444 11.491-30.418 23.592-44.617 36.489L434 604.724zM1320.6 546c30.848 41.37 45.282 92.767 40.503 144.218a264.263 264.263 0 01-17.816 73.676 348.99 348.99 0 01-35.348 66.496 450.433 450.433 0 01-47.017 58.388c-8.564 9.052-17.464 17.8-26.599 26.261-9.135 8.462-18.622 16.536-28.278 24.374A724.063 724.063 0 011081.113 1020L1066 990.216a691.468 691.468 0 00119.223-76.812 607.463 607.463 0 0026.683-23.008 453.636 453.636 0 0024.953-24.643 417.66 417.66 0 0043.541-54.056 315.563 315.563 0 0031.905-60.108 230.224 230.224 0 0015.617-64.254c4.1-43.351-8.054-86.68-34.088-121.513L1320.601 546z" opacity=".5"/><path d="M471.216 826a186.189 186.189 0 01-21.848-23.744 142.278 142.278 0 01-17.013-27.959 114.66 114.66 0 01-9.385-31.905 107.097 107.097 0 01.72-33.332 122.252 122.252 0 0110.238-31.418c4.73-9.8 10.448-19.09 17.063-27.723A244.216 244.216 0 01496.442 605l6.558 8.514c-16.126 12.577-31.182 26.665-43.494 42.92-12.313 16.255-21.748 34.659-25.294 54.524a96.84 96.84 0 00-.652 29.974 103.695 103.695 0 008.531 28.815 130.795 130.795 0 0015.742 25.876 175.51 175.51 0 0020.693 22.502l-7.31 7.875z" opacity=".75"/><path d="M1207.054 491a817.531 817.531 0 0193.292 23A569.062 569.062 0 011390 550.218l-5.052 9.782a559.257 559.257 0 00-87.886-35.54A807.536 807.536 0 001205 501.78l2.054-10.78z"/><path d="M606 553.694c46.865-19.342 95.711-33.493 145.346-44.143 24.835-5.175 49.787-9.73 74.89-13.314 6.28-.954 12.577-1.674 18.857-2.512l9.437-1.222 9.453-1.038 18.924-1.993 18.94-1.675c25.289-1.892 50.627-3.35 75.999-3.65 25.372-.302 50.727-.218 76.065 1.021 25.338 1.24 50.643 2.947 75.847 5.844 25.204 2.898 50.374 6.364 75.242 11.087l-.252 1.406c-24.885-4.722-49.988-8.222-75.141-11.086-25.154-2.863-50.459-4.655-75.763-5.828-25.305-1.172-50.643-1.423-75.981-1.021-25.339.402-50.643 1.675-75.898 3.634l-18.924 1.675-18.907 1.992-9.436 1.022-9.42 1.222c-6.28.838-12.577 1.558-18.824 2.512-25.086 3.584-50.004 8.139-74.805 13.297-49.501 10.634-98.33 24.768-145.112 44.076l-.537-1.306zM457 658.649a186.739 186.739 0 0114.62-17.736c5.23-5.59 10.66-11.009 16.408-16.088a321.884 321.884 0 0136.476-27.98 429.278 429.278 0 0139.6-23.274A564.545 564.545 0 01605.658 554l3.342 8.256c-13.902 5.895-27.586 12.283-40.92 19.248a425.005 425.005 0 00-38.814 22.833 311.894 311.894 0 00-35.473 27.181c-5.548 4.91-10.794 10.193-15.807 15.494A177.584 177.584 0 00464.034 664L457 658.649z" opacity=".5"/><path d="M1383.923 560c2.861 1.346 5.554 2.978 8.331 4.476l8.282 4.594c5.453 3.164 10.755 6.596 16.124 9.895l7.776 5.385 3.888 2.709c1.296.892 2.592 1.784 3.804 2.793l7.44 5.856 3.72 2.928 3.517 3.164 7.036 6.31c2.323 2.137 4.51 4.426 6.733 6.647a185.078 185.078 0 0112.354 14.303 140.284 140.284 0 0110.587 15.65 115.358 115.358 0 018.281 17.013c2.31 5.862 4.1 11.915 5.353 18.09a101.771 101.771 0 011.851 18.762c0 12.645-2.281 25.186-6.733 37.021a139.653 139.653 0 01-7.944 16.996 174.927 174.927 0 01-10.099 15.97 208.335 208.335 0 01-24.978 28.354c-18.245 17.433-39.032 32.073-60.728 44.896a541.448 541.448 0 01-67.899 33.436c-46.724 19.2-95.451 33.235-144.75 43.752l-1.869-8.734c48.93-10.5 97.185-24.416 143.253-43.364a530.52 530.52 0 0066.77-32.848c21.259-12.57 41.507-26.924 59.096-43.751a197.621 197.621 0 0023.901-27.093 170.126 170.126 0 009.527-15.044 135.403 135.403 0 007.338-15.986 96.354 96.354 0 006.228-33.807 92.29 92.29 0 00-1.683-17.063 97.738 97.738 0 00-4.898-16.558 106.73 106.73 0 00-7.675-15.717 130.145 130.145 0 00-9.948-14.69 174.231 174.231 0 00-11.782-13.58c-2.12-2.138-4.19-4.325-6.43-6.361l-6.732-6.075-3.366-3.03-3.586-2.826-7.187-5.654c-1.161-.976-2.423-1.834-3.686-2.71l-3.77-2.625-7.54-5.233c-5.252-3.197-10.402-6.53-15.721-9.642l-8.08-4.476c-2.726-1.464-5.352-3.063-8.146-4.375l4.04-7.758z" opacity=".25"/><path d="M187 539.39a401.353 401.353 0 00-54.519 100.045 349.992 349.992 0 00-15.394 55.04 343.129 343.129 0 00-6.024 56.841 347.435 347.435 0 0016.509 112.807 417.798 417.798 0 0049.393 102.705L173.637 969a421.587 421.587 0 01-49.926-103.749 351.391 351.391 0 01-16.642-114.053c.43-19.31 2.467-38.55 6.09-57.514a354.183 354.183 0 0115.578-55.663A404.92 404.92 0 01183.771 537l3.229 2.39z" opacity=".5"/><path d="M168 555.832a479.1 479.1 0 0165.953-78.992A593.634 593.634 0 01313.684 412l2.316 3.361a590.641 590.641 0 00-79.177 64.353A474.394 474.394 0 00171.373 558L168 555.832zM1324.966 352a969.239 969.239 0 0176.548 37.715 826.656 826.656 0 0172.454 45.089 707.255 707.255 0 0166.928 53.103 587.204 587.204 0 0159.26 61.64c4.634 5.422 8.948 11.113 13.362 16.736 2.174 2.829 4.246 5.741 6.37 8.604 2.123 2.862 4.246 5.741 6.234 8.704l6.066 8.823 5.813 9.008c1.971 2.98 3.791 6.06 5.628 9.125 1.836 3.065 3.757 6.078 5.46 9.227 7.127 12.392 13.479 25.255 19.427 38.253a393.211 393.211 0 0115.316 40.106 359.367 359.367 0 0116.362 84.184A339.704 339.704 0 011695.24 868l-7.195-1.33a332.973 332.973 0 00-.708-125.57 340.888 340.888 0 00-10.48-40.779 383.022 383.022 0 00-15.047-39.347c-5.797-12.813-12.065-25.407-19.091-37.597-1.685-3.098-3.59-6.061-5.358-9.092-1.77-3.03-3.606-6.044-5.544-8.974l-5.729-8.873-5.981-8.688c-1.955-2.913-4.044-5.758-6.134-8.587-2.09-2.828-4.145-5.69-6.285-8.418-4.347-5.54-8.61-11.146-13.176-16.5a579.15 579.15 0 00-58.536-60.866 695.418 695.418 0 00-66.22-52.53 813.628 813.628 0 00-71.83-44.686A930.094 930.094 0 001322 358.735l2.966-6.735z" opacity=".25"/><path d="M705 276.881a1129.613 1129.613 0 0194.649-9.071c31.656-1.677 63.38-2.264 95.07-1.442a1214.13 1214.13 0 01189.028 19.367c31.169 5.801 62.152 12.508 92.682 20.892l11.483 3.102 11.415 3.354c7.632 2.146 15.13 4.594 22.746 6.875 15.13 4.845 30.143 9.825 45.004 15.325A918.484 918.484 0 011438 417.646l-2.068 3.354a915.367 915.367 0 00-170.2-82.011c-14.81-5.483-29.807-10.446-44.836-15.276-7.549-2.28-15.13-4.711-22.662-6.84l-11.382-3.354-11.431-3.102c-30.497-8.267-61.363-15.091-92.464-20.81a1210.523 1210.523 0 00-188.424-19.298c-31.589-.821-63.211-.268-94.766 1.442a1138.29 1138.29 0 00-94.313 9.038l-.454-3.908z" opacity=".25"/><path d="M314 414.306a729.044 729.044 0 0177.936-45.729 861.068 861.068 0 0182.687-36.403 983.572 983.572 0 0185.94-28.046 1057.02 1057.02 0 0188.097-20.324c118.63-22.196 240.58-25.371 360.34-11.348l-.522 4.446C889.156 262.929 767.61 266.07 649.553 288.2c-29.506 5.566-58.81 12.251-87.743 20.257a987.296 987.296 0 00-85.535 27.896 862.543 862.543 0 00-82.25 36.219A719.419 719.419 0 00316.645 418L314 414.306zM1639.219 608a406.775 406.775 0 0145.52 102.444 346.552 346.552 0 0112.876 111.278 350.68 350.68 0 01-23.886 109.477 411.262 411.262 0 01-55.37 97.464 516.594 516.594 0 01-77.426 81.077 642.922 642.922 0 01-91.696 64.556c-64.616 37.838-134.712 65.616-206.758 85.704l-1.479-5.367c71.609-19.903 141.2-47.58 205.396-85.132a638.892 638.892 0 0090.906-63.933 510.56 510.56 0 0076.602-80.203 404.792 404.792 0 0054.63-96.135 345.288 345.288 0 0023.534-107.677 341.444 341.444 0 00-12.658-109.51 400.665 400.665 0 00-44.915-101.031l4.724-3.012z" opacity=".5"/></g></g></svg>