<svg xmlns="http://www.w3.org/2000/svg" width="40" height="40"><g fill="none"><circle cx="19.788" cy="19.788" r="19.288" fill="#25D366" stroke="#FFF" stroke-width="3"/><path fill="#FDFDFD" d="M20.375 29.685h-.005c-1.77 0-3.51-.445-5.055-1.288l-5.607 1.471 1.5-5.48a10.569 10.569 0 01-1.411-5.289c.002-5.832 4.747-10.577 10.577-10.577a10.514 10.514 0 017.483 3.102c1.997 2 3.096 4.657 3.095 7.483-.002 5.831-4.746 10.575-10.577 10.578zm-4.8-3.203l.321.191a8.772 8.772 0 004.475 1.225h.004c4.845 0 8.79-3.944 8.791-8.791 0-2.35-.913-4.558-2.573-6.22s-3.867-2.577-6.215-2.578c-4.85 0-8.793 3.943-8.795 8.79a8.78 8.78 0 001.344 4.68l.209.332-.888 3.244 3.327-.873zm10.128-4.86c-.066-.11-.242-.176-.506-.308s-1.564-.772-1.806-.86c-.242-.088-.419-.132-.595.132-.176.265-.682.86-.837 1.037-.154.176-.308.198-.572.066-.264-.132-1.116-.411-2.126-1.312-.785-.7-1.316-1.566-1.47-1.83-.154-.265-.016-.408.116-.54.119-.119.264-.309.396-.463.133-.154.177-.265.265-.441.088-.177.044-.33-.022-.463-.066-.132-.595-1.433-.815-1.963-.215-.515-.433-.445-.595-.453-.154-.008-.33-.01-.506-.01a.972.972 0 00-.705.331c-.242.265-.925.904-.925 2.205 0 1.3.947 2.558 1.08 2.734.131.176 1.863 2.846 4.514 3.99.63.273 1.123.436 1.507.557.633.202 1.209.173 1.664.105.508-.076 1.564-.64 1.784-1.256.22-.618.22-1.147.154-1.257z"/></g></svg>